<?xml version="1.0" standalone="no"?>
<!DOCTYPE svg PUBLIC "-//W3C//DTD SVG 20010904//EN"
 "http://www.w3.org/TR/2001/REC-SVG-20010904/DTD/svg10.dtd">
<svg version="1.0" xmlns="http://www.w3.org/2000/svg"
 width="1536.000000pt" height="1024.000000pt" viewBox="0 0 1536.000000 1024.000000"
 preserveAspectRatio="xMidYMid meet">

<g transform="translate(0.000000,1024.000000) scale(0.100000,-0.100000)"
fill="#000000" stroke="none">
<path d="M5655 7370 c45 -245 25 -606 -50 -920 -78 -320 -222 -661 -411 -967
-263 -427 -655 -830 -974 -1002 -41 -22 -71 -41 -66 -41 5 0 60 27 122 61 172
93 454 331 646 546 413 461 652 967 755 1598 13 83 18 167 18 337 0 125 3 221
6 215 11 -20 48 -217 59 -312 13 -116 13 -406 0 -515 -19 -157 -48 -283 -112
-490 -157 -507 -514 -977 -943 -1240 -200 -123 -370 -206 -550 -270 -227 -79
-533 -139 -714 -140 -52 0 -91 -4 -85 -8 14 -12 323 4 449 23 536 81 1035 331
1370 686 416 441 635 988 637 1589 1 217 -15 342 -73 570 -35 141 -96 341 -84
280z"/>
<path d="M4076 7330 c-349 -73 -685 -226 -921 -420 -278 -230 -445 -535 -406
-745 14 -77 51 -151 95 -194 29 -29 38 -32 50 -22 14 12 11 18 -19 55 -51 62
-68 116 -69 221 -1 99 14 153 69 265 127 254 452 528 825 695 160 72 255 103
495 158 62 14 -42 3 -119 -13z"/>
<path d="M3915 7160 c-298 -68 -572 -234 -773 -468 -79 -91 -156 -224 -176
-302 -4 -14 8 7 27 45 77 160 182 284 340 401 122 91 200 135 340 192 205 82
401 111 526 77 192 -51 304 -256 272 -496 -6 -46 -22 -120 -36 -165 -27 -90
-119 -277 -181 -369 -22 -33 -63 -94 -91 -135 -69 -103 -86 -138 -79 -166 9
-35 34 -44 174 -59 70 -8 157 -23 195 -32 49 -12 70 -14 78 -6 38 38 -94 83
-289 98 -50 4 -94 11 -97 15 -3 4 47 85 110 179 128 191 211 352 251 486 35
119 44 281 19 374 -73 280 -298 402 -610 331z"/>
<path d="M4761 7031 c-58 -17 -101 -44 -90 -55 3 -3 29 1 59 9 82 22 257 19
381 -6 111 -22 282 -69 342 -94 43 -18 57 -19 57 -5 0 18 -227 111 -344 142
-117 30 -318 35 -405 9z"/>
<path d="M3340 6628 c0 -35 91 -88 152 -88 37 0 48 -6 64 -34 23 -42 62 -61
128 -61 51 0 70 5 104 28 23 15 52 27 65 27 29 0 97 -48 128 -89 29 -40 43
-30 23 17 -22 54 -80 109 -153 145 -60 29 -70 31 -155 28 -251 -10 -260 -9
-348 37 -5 2 -8 -3 -8 -10z"/>
<path d="M5020 6596 c-104 -22 -192 -83 -231 -158 -31 -60 -22 -63 29 -11 33
35 60 53 91 61 43 10 46 9 78 -19 29 -25 42 -29 94 -29 73 0 119 18 148 59 20
27 28 31 69 31 53 0 117 26 146 59 23 25 13 26 -44 6 -54 -19 -136 -19 -225 0
-81 17 -83 17 -155 1z"/>
<path d="M6210 6486 c0 -11 9 -16 29 -16 53 0 56 -11 59 -278 4 -303 4 -308
-48 -323 -22 -7 -40 -17 -40 -24 0 -8 52 -10 197 -7 243 5 279 15 365 102 68
70 88 125 88 246 0 142 -44 220 -158 276 l-67 33 -212 3 c-190 4 -213 2 -213
-12z m379 -41 c63 -22 94 -48 127 -107 27 -50 29 -60 29 -163 0 -94 -4 -118
-24 -163 -44 -98 -134 -146 -263 -140 l-63 3 -3 280 c-1 154 0 285 3 292 6 18
142 17 194 -2z"/>
<path d="M7873 6483 c-3 -10 -31 -79 -61 -153 -183 -452 -187 -460 -239 -460
-15 0 -23 -6 -23 -17 0 -16 12 -18 110 -18 97 0 110 2 110 17 0 12 -10 18 -37
20 -32 3 -38 7 -41 29 -2 14 11 55 27 92 l30 67 124 0 124 0 27 -76 c33 -92
31 -108 -12 -112 -25 -3 -32 -8 -32 -24 0 -20 3 -21 83 -15 45 4 104 7 130 7
55 0 61 19 11 32 -36 9 -28 -7 -169 350 -99 249 -112 277 -133 278 -13 0 -25
-8 -29 -17z m61 -256 c25 -65 44 -122 41 -128 -7 -10 -198 -13 -208 -3 -3 3
15 54 40 112 24 59 49 118 54 131 6 14 13 20 18 15 4 -5 29 -62 55 -127z"/>
<path d="M10560 6485 c0 -8 7 -15 15 -15 31 0 65 -33 111 -108 26 -42 71 -116
100 -163 l54 -86 0 -110 c0 -121 -3 -128 -58 -139 -18 -4 -32 -12 -32 -18 0
-9 37 -12 137 -12 127 1 138 2 141 20 3 13 0 17 -10 14 -8 -3 -28 0 -46 8
l-32 13 0 121 c0 120 0 121 34 173 18 28 59 96 91 150 61 103 93 137 131 137
15 0 24 6 24 15 0 12 -20 15 -116 15 -87 0 -115 -3 -112 -12 3 -7 18 -15 35
-19 43 -8 53 -17 45 -37 -15 -39 -145 -262 -153 -262 -4 0 -18 19 -31 43 -14
23 -50 84 -82 135 -61 100 -62 117 -9 124 15 2 28 9 31 16 3 9 -28 12 -132 12
-114 0 -136 -2 -136 -15z"/>
<path d="M5676 6369 c-4 -28 -5 -53 -3 -56 3 -2 8 19 12 47 4 28 5 53 2 56 -2
3 -7 -19 -11 -47z"/>
<path d="M8696 6289 c-46 -18 -52 -19 -94 -4 -25 8 -75 15 -111 15 -121 -1
-191 -55 -191 -149 0 -41 31 -111 49 -111 4 0 16 -6 26 -14 18 -13 18 -15 -8
-46 -34 -40 -34 -55 1 -90 l29 -28 -38 -17 c-76 -35 -101 -90 -69 -150 31 -59
141 -89 263 -73 139 19 229 118 183 205 -20 40 -65 60 -184 83 -123 23 -132
27 -132 56 0 30 22 40 90 42 68 3 136 34 161 76 23 37 25 103 4 133 -20 28 -7
35 53 31 47 -3 47 -3 50 30 4 38 -8 40 -82 11z m-145 -29 c56 -31 66 -153 15
-197 -48 -41 -133 -27 -161 26 -27 54 -16 120 26 160 25 23 86 28 120 11z
m-40 -421 c100 -13 136 -30 145 -66 18 -68 -44 -123 -138 -123 -103 0 -158 39
-158 111 0 38 31 89 54 89 7 0 51 -5 97 -11z"/>
<path d="M5646 6224 c-58 -246 -216 -588 -398 -858 -122 -182 -187 -263 -308
-389 -127 -132 -204 -197 -350 -296 -107 -73 -125 -92 -42 -44 155 89 289 198
456 371 129 134 170 184 281 347 116 170 217 383 313 655 35 99 76 264 70 281
-2 6 -12 -24 -22 -67z"/>
<path d="M7055 6290 c-16 -4 -47 -8 -67 -9 -21 0 -38 -5 -38 -11 0 -5 0 -13 0
-17 -1 -5 14 -10 32 -13 l33 -5 3 -177 2 -177 -35 -12 c-19 -7 -35 -19 -35
-25 0 -17 242 -14 247 3 2 6 -11 14 -29 18 -57 12 -58 16 -58 160 0 130 1 134
27 165 26 32 28 32 95 28 39 -3 69 -1 70 4 2 6 2 25 0 44 -4 31 -7 34 -39 34
-43 0 -83 -21 -116 -59 -29 -35 -37 -31 -37 21 0 40 -2 41 -55 28z"/>
<path d="M8920 6288 c-25 -5 -55 -12 -67 -14 -34 -7 -28 -21 12 -28 l35 -7 -2
-177 -3 -177 -32 -14 c-60 -27 -39 -36 82 -36 121 0 143 9 83 36 l-33 14 0
150 0 149 42 30 c59 41 125 43 159 3 23 -27 24 -34 24 -182 l0 -154 -35 -12
c-57 -21 -42 -34 38 -33 141 2 167 4 167 13 0 4 -15 12 -32 17 l-33 10 -5 164
c-6 176 -13 201 -58 235 -21 15 -43 20 -93 20 -57 0 -73 -4 -118 -32 -29 -18
-54 -33 -57 -33 -2 0 -4 16 -4 35 0 38 0 38 -70 23z"/>
<path d="M9570 6273 c-81 -41 -120 -110 -120 -214 0 -93 45 -170 122 -210 57
-29 150 -26 217 7 49 25 71 47 58 61 -3 3 -26 -4 -50 -16 -116 -56 -229 5
-239 129 l-3 45 153 3 152 3 0 53 c0 39 -6 62 -22 86 -39 57 -71 74 -146 78
-58 3 -74 0 -122 -25z m171 -33 c26 -26 30 -36 27 -77 l-3 -48 -108 -3 -108
-3 7 38 c15 81 55 122 122 123 24 0 42 -8 63 -30z"/>
<path d="M10044 6286 c-75 -33 -99 -125 -48 -186 15 -17 67 -51 116 -76 95
-48 112 -69 96 -117 -13 -35 -36 -47 -90 -47 -54 0 -76 15 -102 71 -32 66 -46
62 -46 -13 l0 -64 45 -12 c69 -18 160 -15 204 7 51 26 71 60 71 119 0 41 -5
53 -32 79 -18 18 -64 46 -103 63 -38 17 -78 39 -87 47 -42 38 -3 113 60 113
49 0 80 -20 99 -62 25 -56 43 -50 43 15 0 52 0 52 -40 65 -52 16 -147 15 -186
-2z"/>
<path d="M11300 6284 c-80 -35 -130 -119 -130 -220 0 -151 77 -235 215 -235
91 0 196 49 182 84 -6 15 -11 14 -43 -8 -27 -18 -50 -25 -86 -25 -98 0 -158
55 -161 148 l-2 47 153 3 152 3 0 42 c0 61 -36 127 -85 154 -48 27 -141 30
-195 7z m140 -29 c32 -16 55 -72 48 -115 -3 -25 -5 -25 -112 -28 l-108 -3 7
38 c19 105 86 149 165 108z"/>
<path d="M11810 6284 c-87 -37 -134 -115 -134 -220 1 -95 37 -164 107 -204 67
-38 124 -45 194 -25 207 60 232 357 38 446 -50 23 -156 24 -205 3z m161 -35
c51 -36 64 -72 64 -189 0 -85 -4 -111 -19 -136 -52 -87 -168 -85 -212 3 -15
30 -19 60 -19 143 0 91 3 110 22 141 38 60 109 77 164 38z"/>
<path d="M2993 5949 c-36 -11 -90 -61 -104 -96 -5 -13 -9 -45 -9 -70 0 -119
130 -189 246 -132 119 57 121 228 4 287 -47 23 -84 26 -137 11z"/>
<path d="M4365 5638 c-3 -7 -9 -43 -14 -79 -10 -73 -17 -88 -76 -171 -46 -64
-41 -64 -164 -21 -41 14 -89 39 -107 55 -18 16 -38 27 -44 23 -49 -30 86 -126
220 -154 l55 -12 24 -67 c13 -37 31 -93 40 -125 15 -57 15 -59 -3 -73 -13 -9
-46 -14 -97 -14 -141 0 -321 46 -428 109 -55 33 -76 31 -69 -5 5 -28 146 -95
258 -123 65 -17 133 -25 215 -28 106 -4 124 -2 151 15 19 12 34 31 37 49 7 34
-15 124 -48 199 -28 62 -30 60 62 67 103 8 272 102 256 143 -8 22 -31 17 -72
-16 -21 -17 -61 -40 -90 -51 -51 -19 -171 -38 -171 -26 0 3 13 20 29 38 39 43
73 150 69 219 -3 51 -22 79 -33 48z"/>
<path d="M6259 5285 c-27 -58 -49 -108 -49 -110 0 -3 6 -5 13 -5 7 0 18 14 24
30 11 28 14 30 68 30 54 0 57 -2 68 -30 6 -16 18 -30 25 -30 8 0 12 6 9 13
-41 100 -91 207 -99 207 -5 0 -32 -47 -59 -105z m80 28 c7 -21 15 -44 17 -50
4 -9 -7 -13 -40 -13 -25 0 -46 2 -46 5 0 11 45 95 50 95 4 0 12 -17 19 -37z"/>
<path d="M6500 5278 l0 -108 70 0 c40 0 70 4 70 10 0 6 -24 10 -54 10 -30 0
-57 3 -59 8 -3 4 -2 22 0 40 5 31 7 32 54 32 27 0 49 5 49 10 0 6 -22 10 -50
10 l-50 0 0 38 0 39 55 -5 c42 -3 55 -1 55 9 0 11 -17 14 -70 14 l-70 0 0
-107z"/>
<path d="M6770 5377 c-27 -14 -39 -61 -20 -81 6 -6 32 -18 58 -27 36 -12 48
-21 50 -39 6 -39 -52 -55 -94 -25 -20 13 -34 11 -34 -5 0 -13 51 -30 89 -30
41 0 71 23 71 56 0 31 -14 43 -66 63 -56 21 -70 52 -34 71 24 13 70 6 70 -11
0 -6 5 -7 10 -4 17 10 11 21 -15 33 -33 15 -54 15 -85 -1z"/>
<path d="M6967 5383 c-13 -12 5 -23 39 -23 l34 0 0 -95 c0 -126 18 -124 22 3
l3 97 40 6 c35 5 32 6 -25 8 -36 2 -74 4 -86 6 -12 3 -24 2 -27 -2z"/>
<path d="M7226 5383 c-3 -3 -6 -53 -6 -110 0 -85 3 -103 15 -103 11 0 15 12
15 50 l0 50 60 0 60 0 0 -50 c0 -38 4 -50 15 -50 12 0 15 19 15 111 0 84 -3
110 -12 107 -7 -3 -14 -25 -16 -51 l-3 -47 -60 0 -59 0 0 44 c0 43 -10 63 -24
49z"/>
<path d="M7500 5278 l0 -108 70 0 c84 0 94 18 13 22 l-58 3 0 35 0 35 53 3
c70 4 67 22 -4 22 l-55 0 3 38 3 37 58 0 c81 -1 71 13 -13 17 l-70 3 0 -107z"/>
<path d="M7970 5280 c0 -67 4 -110 10 -110 6 0 10 43 10 110 0 67 -4 110 -10
110 -6 0 -10 -43 -10 -110z"/>
<path d="M8133 5370 c-22 -13 -35 -31 -43 -59 -14 -52 -5 -85 32 -116 35 -29
101 -34 136 -9 32 22 17 37 -18 19 -43 -22 -68 -18 -101 14 -36 37 -38 79 -5
117 18 22 32 28 60 27 20 -1 43 -7 52 -14 11 -9 18 -9 26 -1 9 9 2 15 -25 27
-48 20 -75 19 -114 -5z"/>
<path d="M8740 5290 c0 -55 -1 -103 -2 -107 -2 -5 30 -9 70 -11 45 -2 72 1 72
8 0 6 -25 10 -60 10 l-60 0 0 100 c0 60 -4 100 -10 100 -6 0 -10 -40 -10 -100z"/>
<path d="M8990 5305 c-22 -47 -43 -98 -47 -113 -6 -24 -5 -26 10 -14 9 8 19
23 22 33 6 17 14 20 63 17 51 -3 58 -6 70 -30 16 -34 36 -38 26 -5 -15 49 -83
192 -93 195 -6 2 -29 -35 -51 -83z m69 8 c8 -21 16 -44 18 -50 4 -9 -8 -13
-40 -13 l-45 0 21 50 c11 28 24 50 27 50 3 0 12 -17 19 -37z"/>
<path d="M9242 5374 c-24 -17 -30 -65 -9 -81 6 -5 33 -17 60 -27 48 -18 60
-39 35 -64 -15 -15 -74 -16 -83 -2 -7 12 -35 13 -35 2 0 -14 48 -32 83 -32 43
0 77 25 77 56 0 30 -28 55 -77 69 -48 13 -65 41 -38 61 19 15 32 14 83 -1 30
-10 28 9 -3 23 -35 16 -66 15 -93 -4z"/>
<path d="M9510 5379 c-47 -3 -80 -7 -75 -8 19 -6 30 -8 53 -9 21 -2 22 -6 22
-97 0 -57 4 -95 10 -95 6 0 10 38 10 94 l0 95 43 8 c63 13 33 19 -63 12z"/>
<path d="M9690 5280 c0 -67 4 -110 10 -110 6 0 10 43 10 110 0 67 -4 110 -10
110 -6 0 -10 -43 -10 -110z"/>
<path d="M9863 5376 c-102 -46 -69 -206 42 -206 14 0 42 7 63 15 27 12 33 18
23 25 -9 5 -23 3 -38 -7 -30 -20 -87 -10 -108 20 -19 27 -19 86 0 114 21 30
68 38 107 19 35 -18 49 -13 27 10 -22 21 -79 26 -116 10z"/>
<path d="M10248 5378 c-21 -17 -27 -39 -16 -61 6 -13 3 -25 -11 -44 -26 -32
-26 -58 -1 -83 24 -24 91 -27 110 -5 12 14 15 14 30 0 28 -25 45 -19 26 9 -10
16 -14 35 -10 55 4 20 2 31 -5 31 -6 0 -11 -12 -11 -26 0 -26 0 -26 -45 15
-24 22 -49 41 -55 41 -6 0 -10 12 -8 28 2 21 9 28 31 30 22 3 30 -1 34 -17 6
-24 23 -28 23 -7 0 38 -59 59 -92 34z m51 -124 c34 -28 39 -49 15 -58 -30 -11
-61 -6 -79 14 -17 18 -17 21 -1 45 21 31 27 31 65 -1z"/>
<path d="M7720 5370 c0 -6 15 -9 33 -8 l32 3 3 -97 c4 -127 22 -129 22 -3 l0
95 34 0 c19 0 38 5 41 10 4 6 -25 10 -79 10 -51 0 -86 -4 -86 -10z"/>
<path d="M8490 5275 c0 -59 4 -105 9 -105 6 0 11 17 13 38 3 37 3 37 58 44 76
9 102 52 64 106 -13 19 -24 22 -80 22 l-64 0 0 -105z m111 85 c22 -12 26 -59
7 -78 -7 -7 -29 -12 -49 -12 -36 0 -37 1 -41 39 -2 22 -2 45 0 50 5 14 57 14
83 1z"/>
<path d="M6230 4865 c0 -63 4 -105 10 -105 6 0 10 18 10 40 0 38 1 40 33 40
27 0 36 -6 55 -40 12 -22 30 -40 39 -40 14 0 15 2 1 18 -9 9 -21 28 -28 40
-10 21 -9 27 9 43 28 26 28 73 -1 93 -14 10 -44 16 -75 16 l-53 0 0 -105z
m114 69 c34 -33 13 -60 -49 -66 -37 -3 -40 -1 -43 25 -2 16 -1 35 2 43 7 19
71 18 90 -2z"/>
<path d="M6480 4865 l0 -105 70 0 c40 0 70 4 70 10 0 6 -27 10 -61 10 l-60 0
3 38 c3 37 3 37 51 38 64 1 73 14 10 14 -54 0 -63 8 -63 56 0 23 3 24 60 24
33 0 60 4 60 10 0 6 -30 10 -70 10 l-70 0 0 -105z"/>
<path d="M6753 4958 c-30 -15 -46 -60 -40 -115 5 -51 29 -77 80 -87 35 -7 97
18 97 39 0 14 -3 14 -30 0 -52 -27 -93 -18 -115 26 -22 42 -18 73 12 103 28
28 50 30 111 11 30 -10 28 9 -3 23 -31 15 -82 14 -112 0z"/>
<path d="M7018 4955 c-36 -20 -48 -44 -48 -95 0 -61 41 -100 105 -100 38 0 52
5 76 29 38 38 41 106 6 146 -28 34 -98 43 -139 20z m112 -30 c66 -70 -15 -180
-100 -135 -23 12 -43 70 -34 96 23 65 91 84 134 39z"/>
<path d="M7270 4865 c0 -85 3 -105 15 -105 11 0 15 18 17 80 l3 80 63 -80 c35
-44 68 -80 73 -80 5 0 9 47 9 105 0 63 -4 105 -10 105 -6 0 -10 -32 -10 -75 0
-41 -3 -75 -7 -75 -5 0 -35 34 -68 75 -33 41 -66 74 -72 75 -10 0 -13 -27 -13
-105z"/>
<path d="M7567 4952 c-20 -22 -22 -55 -3 -71 7 -6 30 -17 51 -24 22 -8 43 -21
49 -29 23 -38 -48 -64 -94 -36 -10 7 -22 9 -26 6 -12 -12 7 -27 45 -38 111
-30 152 85 43 118 -50 15 -69 36 -52 57 15 18 53 20 82 4 27 -14 38 -1 14 17
-28 20 -89 18 -109 -4z"/>
<path d="M7760 4960 c0 -5 18 -10 40 -10 l40 0 0 -95 c0 -57 4 -95 10 -95 6 0
10 38 10 95 l0 95 35 0 c19 0 35 5 35 10 0 6 -35 10 -85 10 -50 0 -85 -4 -85
-10z"/>
<path d="M8020 4865 c0 -63 4 -105 10 -105 6 0 10 18 10 40 0 38 1 40 33 40
27 0 36 -7 57 -40 33 -54 59 -55 29 -1 l-22 39 22 28 c27 34 27 55 -2 82 -18
17 -36 22 -80 22 l-57 0 0 -105z m124 52 c13 -36 0 -47 -55 -50 -41 -2 -44 0
-47 26 -6 49 3 58 50 55 36 -3 44 -7 52 -31z"/>
<path d="M8270 4885 c0 -104 14 -125 84 -125 67 0 86 29 86 131 0 44 -4 79 -9
79 -13 0 -21 -38 -21 -107 0 -66 -12 -83 -59 -83 -43 0 -61 34 -61 115 0 43
-4 75 -10 75 -6 0 -10 -35 -10 -85z"/>
<path d="M8562 4945 c-17 -14 -33 -39 -37 -55 -10 -44 12 -98 45 -115 37 -19
99 -19 124 0 24 18 15 30 -12 16 -69 -37 -139 9 -129 84 10 68 47 85 137 60
l25 -7 -24 21 c-33 30 -91 28 -129 -4z"/>
<path d="M8780 4961 c0 -6 15 -11 33 -13 l32 -3 3 -92 c2 -65 6 -93 15 -93 9
0 12 27 12 92 l0 93 38 3 c71 6 37 22 -48 22 -47 0 -85 -4 -85 -9z"/>
<path d="M9030 4865 c0 -87 3 -105 15 -105 12 0 15 18 15 105 0 87 -3 105 -15
105 -12 0 -15 -18 -15 -105z"/>
<path d="M9140 4963 c-1 -20 86 -203 97 -203 6 0 21 24 32 53 11 28 29 71 40
94 23 46 26 63 11 63 -10 0 -43 -70 -62 -131 -6 -22 -14 -39 -18 -39 -4 0 -23
37 -42 82 -19 45 -40 84 -46 86 -7 2 -12 0 -12 -5z"/>
<path d="M9420 4865 l0 -105 70 0 c40 0 70 4 70 10 0 6 -27 10 -60 10 l-60 0
0 35 0 35 55 0 c37 0 55 4 55 13 0 8 -16 11 -55 9 l-55 -4 0 41 0 41 60 0 c33
0 60 4 60 10 0 6 -30 10 -70 10 l-70 0 0 -105z"/>
<path d="M9797 4952 c-20 -22 -22 -55 -3 -71 7 -6 30 -17 51 -24 48 -17 64
-39 46 -61 -17 -20 -60 -21 -88 -1 -28 19 -43 0 -17 -20 35 -27 102 -23 127 7
34 40 15 75 -56 98 -42 13 -63 40 -45 58 15 15 53 15 80 1 27 -14 38 -1 14 17
-28 20 -89 18 -109 -4z"/>
<path d="M10020 4885 c0 -72 3 -88 20 -105 24 -24 96 -27 124 -7 22 16 32 69
28 143 -6 83 -22 64 -22 -24 0 -89 -14 -112 -67 -112 -46 0 -56 20 -57 111 0
57 -4 79 -13 79 -10 0 -13 -22 -13 -85z"/>
<path d="M10291 4865 c1 -82 4 -105 15 -105 10 0 14 12 14 39 0 34 3 39 26 44
22 4 31 -2 57 -39 40 -57 67 -60 32 -4 l-25 40 20 20 c11 11 20 33 20 48 0 45
-27 62 -99 62 l-62 0 2 -105z m123 69 c34 -33 13 -61 -49 -66 l-40 -3 -3 43
-3 42 40 0 c23 0 46 -7 55 -16z"/>
<path d="M10588 4954 c-35 -19 -48 -43 -48 -93 0 -28 8 -48 26 -70 22 -27 33
-31 73 -31 26 0 52 5 58 11 8 8 13 8 17 0 16 -26 26 -7 23 44 l-2 55 -42 0
c-24 0 -43 -4 -43 -10 0 -5 14 -10 30 -10 25 0 30 -4 30 -25 0 -48 -75 -61
-115 -20 -34 33 -34 93 -2 123 28 26 88 30 107 7 10 -12 16 -13 24 -5 17 18
-22 40 -68 40 -23 -1 -53 -7 -68 -16z"/>
<path d="M10840 4865 l0 -105 70 0 c40 0 70 4 70 10 0 6 -27 10 -60 10 l-60 0
0 35 0 35 55 0 c70 0 72 18 3 22 l-53 3 -3 38 -3 37 60 0 c34 0 61 4 61 10 0
6 -30 10 -70 10 l-70 0 0 -105z"/>
<path d="M11099 4941 c-24 -24 -29 -38 -29 -76 0 -38 5 -52 29 -76 25 -24 38
-29 79 -29 69 0 102 33 102 102 0 41 -5 54 -29 79 -24 24 -38 29 -76 29 -38 0
-52 -5 -76 -29z m115 -2 c35 -16 52 -70 36 -110 -15 -34 -37 -49 -75 -49 -40
0 -62 16 -74 53 -14 41 -2 78 31 101 27 19 48 20 82 5z"/>
<path d="M11377 4963 c-4 -3 -7 -51 -7 -105 0 -80 3 -98 15 -98 12 0 15 15 15
75 0 41 4 75 9 75 5 0 11 -4 13 -10 7 -22 104 -139 116 -139 9 -1 12 26 12
104 0 125 -18 143 -22 23 l-3 -83 -65 83 c-65 82 -71 88 -83 75z"/>
<path d="M3944 4923 c-14 -14 -16 -30 -11 -103 3 -47 13 -105 21 -129 15 -41
15 -45 -1 -57 -27 -21 -59 -27 -98 -20 -27 5 -35 4 -35 -8 0 -38 101 -52 159
-22 23 12 36 14 50 7 29 -16 47 11 22 33 -39 36 -64 115 -69 219 -2 53 -8 97
-12 97 -5 0 -16 -8 -26 -17z"/>
</g>
</svg>
